<?xml version="1.0" encoding="UTF-8"?>
<svg version="1.1" xmlns="http://www.w3.org/2000/svg" width="512" height="512">
<path d="M0 0 C3.28284132 1.69703347 6.5940812 3.33658633 9.90234375 4.98339844 C9.90234375 5.64339844 9.90234375 6.30339844 9.90234375 6.98339844 C10.89234375 6.98339844 11.88234375 6.98339844 12.90234375 6.98339844 C12.90234375 7.64339844 12.90234375 8.30339844 12.90234375 8.98339844 C13.62164062 9.22960937 14.3409375 9.47582031 15.08203125 9.72949219 C18.22795554 11.1281649 20.40157833 12.82379547 23.02734375 15.04589844 C27.68845649 18.96575605 32.41291771 22.78389605 37.19921875 26.54980469 C49.55781435 37.67611258 59.69935609 52.62351981 67.90234375 66.98339844 C68.80146484 68.53800781 68.80146484 68.53800781 69.71875 70.12402344 C73.90234375 77.53995296 73.90234375 77.53995296 73.90234375 80.98339844 C74.56234375 81.31339844 75.22234375 81.64339844 75.90234375 81.98339844 C76.86759943 84.2707619 77.72298961 86.51548319 78.52734375 88.85839844 C78.75679688 89.49648437 78.98625 90.13457031 79.22265625 90.79199219 C80.22720973 93.65616549 80.90234375 95.92590587 80.90234375 98.98339844 C81.56234375 99.31339844 82.22234375 99.64339844 82.90234375 99.98339844 C84.26730915 104.21329122 85.02131811 108.62924663 85.90234375 112.98339844 C86.07056641 113.81210449 86.23878906 114.64081055 86.41210938 115.49462891 C86.95954223 118.21835618 87.49580217 120.94402724 88.02734375 123.67089844 C88.28330322 124.96979004 88.28330322 124.96979004 88.54443359 126.29492188 C90.66557701 137.42617596 90.97230152 147.94532529 90.34301758 159.23974609 C90.21626169 161.58219493 90.11438324 163.92486088 90.01367188 166.26855469 C89.55477478 175.44770383 88.23693788 183.89351678 85.73120117 192.73876953 C84.73733907 196.07118519 84.73733907 196.07118519 84.90234375 199.98339844 C84.24234375 199.98339844 83.58234375 199.98339844 82.90234375 199.98339844 C82.53109375 201.87058594 82.53109375 201.87058594 82.15234375 203.79589844 C80.90652382 209.39331476 78.96216863 214.641435 76.90234375 219.98339844 C76.58136719 220.85480469 76.26039063 221.72621094 75.9296875 222.62402344 C74.11658705 227.4100214 72.05118947 231.67230915 69.234375 235.94433594 C67.81103638 238.12317101 66.51743121 240.35547251 65.21484375 242.60839844 C56.41842493 257.29932471 45.55985983 269.52279847 33.40869141 281.48803711 C31.98913261 282.89724256 30.59332088 284.33025434 29.19921875 285.76464844 C26.9568171 287.93077792 24.74701572 289.28002439 22.0078125 290.73730469 C18.21722439 292.98071398 14.76814108 295.72069921 11.2578125 298.37402344 C8.90234375 299.98339844 8.90234375 299.98339844 6.90234375 299.98339844 C6.57234375 300.64339844 6.24234375 301.30339844 5.90234375 301.98339844 C3.52550253 303.36378341 1.15415306 304.66078131 -1.28515625 305.92089844 C-2.27612305 306.44200195 -2.27612305 306.44200195 -3.28710938 306.97363281 C-5.21918637 307.98639972 -7.15760397 308.98601356 -9.09765625 309.98339844 C-10.12117187 310.51707031 -11.1446875 311.05074219 -12.19921875 311.60058594 C-15.18306582 313.0241464 -18.14748597 314.13296188 -21.28515625 315.17089844 C-22.30996094 315.51507813 -23.33476562 315.85925781 -24.390625 316.21386719 C-27.09765625 316.98339844 -27.09765625 316.98339844 -30.09765625 316.98339844 C-30.42765625 317.64339844 -30.75765625 318.30339844 -31.09765625 318.98339844 C-33.0234375 319.58105469 -33.0234375 319.58105469 -35.41015625 320.04589844 C-36.19003906 320.201875 -36.96992188 320.35785156 -37.7734375 320.51855469 C-38.54042969 320.67195313 -39.30742187 320.82535156 -40.09765625 320.98339844 C-40.69578125 321.13808594 -41.29390625 321.29277344 -41.91015625 321.45214844 C-62.91305631 326.55285274 -84.76198339 328.84899085 -106.09765625 324.98339844 C-107.25265625 324.81839844 -108.40765625 324.65339844 -109.59765625 324.48339844 C-112.97558021 324.00083787 -116.34925594 323.4965779 -119.72265625 322.98339844 C-120.80804688 322.81839844 -121.8934375 322.65339844 -123.01171875 322.48339844 C-125.72337975 322.04404071 -128.40865288 321.54319096 -131.09765625 320.98339844 C-131.09765625 320.32339844 -131.09765625 319.66339844 -131.09765625 318.98339844 C-133.07765625 318.98339844 -135.05765625 318.98339844 -137.09765625 318.98339844 C-137.09765625 318.32339844 -137.09765625 317.66339844 -137.09765625 316.98339844 C-138.92296875 316.64308594 -138.92296875 316.64308594 -140.78515625 316.29589844 C-150.11777273 314.19752712 -158.69846779 310.56670244 -166.76171875 305.45214844 C-169.03700715 304.02153232 -171.35099405 302.74612644 -173.72265625 301.48339844 C-178.17556854 299.02688815 -182.1175879 296.1376956 -186.09765625 292.98339844 C-186.88011719 292.37496094 -187.66257812 291.76652344 -188.46875 291.13964844 C-193.73034284 287.0026082 -198.76118332 282.6727191 -203.69921875 278.15527344 C-206.57023268 275.55546278 -209.52364005 273.06224385 -212.50390625 270.58886719 C-214.25584387 268.82404767 -214.98978533 267.19914027 -216.09765625 264.98339844 C-217.57005908 263.23067277 -219.07446339 261.50467018 -220.59765625 259.79589844 C-226.42802155 253.05416912 -230.74357441 245.54764749 -235.07373047 237.78857422 C-235.97197297 236.2049774 -236.92337021 234.65177658 -237.8828125 233.10449219 C-239.09765625 230.98339844 -239.09765625 230.98339844 -239.09765625 228.98339844 C-239.75765625 228.65339844 -240.41765625 228.32339844 -241.09765625 227.98339844 C-241.94921875 226.24121094 -241.94921875 226.24121094 -242.72265625 224.10839844 C-242.98304688 223.40972656 -243.2434375 222.71105469 -243.51171875 221.99121094 C-244.09765625 219.98339844 -244.09765625 219.98339844 -244.09765625 216.98339844 C-244.75765625 216.65339844 -245.41765625 216.32339844 -246.09765625 215.98339844 C-246.94921875 213.80371094 -246.94921875 213.80371094 -247.72265625 211.10839844 C-247.98304688 210.22410156 -248.2434375 209.33980469 -248.51171875 208.42871094 C-249.09765625 205.98339844 -249.09765625 205.98339844 -249.09765625 202.98339844 C-249.75765625 202.65339844 -250.41765625 202.32339844 -251.09765625 201.98339844 C-251.67602539 200.06567383 -251.67602539 200.06567383 -252.1328125 197.58105469 C-252.30232422 196.69095703 -252.47183594 195.80085937 -252.64648438 194.88378906 C-252.81599609 193.94728516 -252.98550781 193.01078125 -253.16015625 192.04589844 C-253.50275583 190.20299291 -253.84769638 188.36052057 -254.1953125 186.51855469 C-254.41973022 185.28697632 -254.41973022 185.28697632 -254.64868164 184.03051758 C-255.02128457 181.93179245 -255.02128457 181.93179245 -256.09765625 179.98339844 C-260.89428519 150.55552791 -257.49029684 117.57516052 -246.09765625 89.98339844 C-245.82018555 89.30196777 -245.54271484 88.62053711 -245.25683594 87.91845703 C-234.73021941 62.29968002 -234.73021941 62.29968002 -230.09765625 59.98339844 C-229.41729284 58.65700187 -228.75447486 57.3216105 -228.09765625 55.98339844 C-219.69177546 43.14015029 -209.846378 31.95187183 -198.25390625 21.88574219 C-196.09689076 20.03312819 -196.09689076 20.03312819 -194.23925781 18.06274414 C-183.54023966 7.67474395 -168.68607678 -0.03769653 -155.09765625 -6.01660156 C-154.4826123 -6.28907715 -153.86756836 -6.56155273 -153.23388672 -6.84228516 C-103.4220213 -28.57527924 -47.80633496 -24.90555838 0 0 Z " fill="#606060" transform="translate(336.09765625,105.0166015625)"/>
<path d="M0 0 C3.28284132 1.69703347 6.5940812 3.33658633 9.90234375 4.98339844 C9.90234375 5.64339844 9.90234375 6.30339844 9.90234375 6.98339844 C10.89234375 6.98339844 11.88234375 6.98339844 12.90234375 6.98339844 C12.90234375 7.64339844 12.90234375 8.30339844 12.90234375 8.98339844 C13.62164062 9.22960937 14.3409375 9.47582031 15.08203125 9.72949219 C18.22795554 11.1281649 20.40157833 12.82379547 23.02734375 15.04589844 C27.68845649 18.96575605 32.41291771 22.78389605 37.19921875 26.54980469 C49.55781435 37.67611258 59.69935609 52.62351981 67.90234375 66.98339844 C68.80146484 68.53800781 68.80146484 68.53800781 69.71875 70.12402344 C73.90234375 77.53995296 73.90234375 77.53995296 73.90234375 80.98339844 C74.56234375 81.31339844 75.22234375 81.64339844 75.90234375 81.98339844 C76.86759943 84.2707619 77.72298961 86.51548319 78.52734375 88.85839844 C78.75679688 89.49648437 78.98625 90.13457031 79.22265625 90.79199219 C80.22720973 93.65616549 80.90234375 95.92590587 80.90234375 98.98339844 C81.56234375 99.31339844 82.22234375 99.64339844 82.90234375 99.98339844 C84.26730915 104.21329122 85.02131811 108.62924663 85.90234375 112.98339844 C86.07056641 113.81210449 86.23878906 114.64081055 86.41210938 115.49462891 C86.95954223 118.21835618 87.49580217 120.94402724 88.02734375 123.67089844 C88.28330322 124.96979004 88.28330322 124.96979004 88.54443359 126.29492188 C90.66557701 137.42617596 90.97230152 147.94532529 90.34301758 159.23974609 C90.21626169 161.58219493 90.11438324 163.92486088 90.01367188 166.26855469 C89.55477478 175.44770383 88.23693788 183.89351678 85.73120117 192.73876953 C84.73733907 196.07118519 84.73733907 196.07118519 84.90234375 199.98339844 C84.24234375 199.98339844 83.58234375 199.98339844 82.90234375 199.98339844 C82.53109375 201.87058594 82.53109375 201.87058594 82.15234375 203.79589844 C80.90652382 209.39331476 78.96216863 214.641435 76.90234375 219.98339844 C76.58136719 220.85480469 76.26039063 221.72621094 75.9296875 222.62402344 C74.11658705 227.4100214 72.05118947 231.67230915 69.234375 235.94433594 C67.81103638 238.12317101 66.51743121 240.35547251 65.21484375 242.60839844 C56.41842493 257.29932471 45.55985983 269.52279847 33.40869141 281.48803711 C31.98913261 282.89724256 30.59332088 284.33025434 29.19921875 285.76464844 C26.9568171 287.93077792 24.74701572 289.28002439 22.0078125 290.73730469 C18.21722439 292.98071398 14.76814108 295.72069921 11.2578125 298.37402344 C8.90234375 299.98339844 8.90234375 299.98339844 6.90234375 299.98339844 C6.57234375 300.64339844 6.24234375 301.30339844 5.90234375 301.98339844 C3.52550253 303.36378341 1.15415306 304.66078131 -1.28515625 305.92089844 C-2.27612305 306.44200195 -2.27612305 306.44200195 -3.28710938 306.97363281 C-5.21918637 307.98639972 -7.15760397 308.98601356 -9.09765625 309.98339844 C-10.12117187 310.51707031 -11.1446875 311.05074219 -12.19921875 311.60058594 C-15.18306582 313.0241464 -18.14748597 314.13296188 -21.28515625 315.17089844 C-22.30996094 315.51507813 -23.33476562 315.85925781 -24.390625 316.21386719 C-27.09765625 316.98339844 -27.09765625 316.98339844 -30.09765625 316.98339844 C-30.42765625 317.64339844 -30.75765625 318.30339844 -31.09765625 318.98339844 C-33.0234375 319.58105469 -33.0234375 319.58105469 -35.41015625 320.04589844 C-36.19003906 320.201875 -36.96992188 320.35785156 -37.7734375 320.51855469 C-38.54042969 320.67195313 -39.30742187 320.82535156 -40.09765625 320.98339844 C-40.69578125 321.13808594 -41.29390625 321.29277344 -41.91015625 321.45214844 C-62.91305631 326.55285274 -84.76198339 328.84899085 -106.09765625 324.98339844 C-107.25265625 324.81839844 -108.40765625 324.65339844 -109.59765625 324.48339844 C-112.97558021 324.00083787 -116.34925594 323.4965779 -119.72265625 322.98339844 C-120.80804688 322.81839844 -121.8934375 322.65339844 -123.01171875 322.48339844 C-125.72337975 322.04404071 -128.40865288 321.54319096 -131.09765625 320.98339844 C-131.09765625 320.32339844 -131.09765625 319.66339844 -131.09765625 318.98339844 C-133.07765625 318.98339844 -135.05765625 318.98339844 -137.09765625 318.98339844 C-137.09765625 318.32339844 -137.09765625 317.66339844 -137.09765625 316.98339844 C-138.92296875 316.64308594 -138.92296875 316.64308594 -140.78515625 316.29589844 C-150.11777273 314.19752712 -158.69846779 310.56670244 -166.76171875 305.45214844 C-169.03700715 304.02153232 -171.35099405 302.74612644 -173.72265625 301.48339844 C-178.17556854 299.02688815 -182.1175879 296.1376956 -186.09765625 292.98339844 C-186.88011719 292.37496094 -187.66257812 291.76652344 -188.46875 291.13964844 C-193.73034284 287.0026082 -198.76118332 282.6727191 -203.69921875 278.15527344 C-206.57023268 275.55546278 -209.52364005 273.06224385 -212.50390625 270.58886719 C-214.25584387 268.82404767 -214.98978533 267.19914027 -216.09765625 264.98339844 C-217.57005908 263.23067277 -219.07446339 261.50467018 -220.59765625 259.79589844 C-226.42802155 253.05416912 -230.74357441 245.54764749 -235.07373047 237.78857422 C-235.97197297 236.2049774 -236.92337021 234.65177658 -237.8828125 233.10449219 C-239.09765625 230.98339844 -239.09765625 230.98339844 -239.09765625 228.98339844 C-239.75765625 228.65339844 -240.41765625 228.32339844 -241.09765625 227.98339844 C-241.94921875 226.24121094 -241.94921875 226.24121094 -242.72265625 224.10839844 C-242.98304688 223.40972656 -243.2434375 222.71105469 -243.51171875 221.99121094 C-244.09765625 219.98339844 -244.09765625 219.98339844 -244.09765625 216.98339844 C-244.75765625 216.65339844 -245.41765625 216.32339844 -246.09765625 215.98339844 C-246.94921875 213.80371094 -246.94921875 213.80371094 -247.72265625 211.10839844 C-247.98304688 210.22410156 -248.2434375 209.33980469 -248.51171875 208.42871094 C-249.09765625 205.98339844 -249.09765625 205.98339844 -249.09765625 202.98339844 C-249.75765625 202.65339844 -250.41765625 202.32339844 -251.09765625 201.98339844 C-251.67602539 200.06567383 -251.67602539 200.06567383 -252.1328125 197.58105469 C-252.30232422 196.69095703 -252.47183594 195.80085937 -252.64648438 194.88378906 C-252.81599609 193.94728516 -252.98550781 193.01078125 -253.16015625 192.04589844 C-253.50275583 190.20299291 -253.84769638 188.36052057 -254.1953125 186.51855469 C-254.41973022 185.28697632 -254.41973022 185.28697632 -254.64868164 184.03051758 C-255.02128457 181.93179245 -255.02128457 181.93179245 -256.09765625 179.98339844 C-260.89428519 150.55552791 -257.49029684 117.57516052 -246.09765625 89.98339844 C-245.82018555 89.30196777 -245.54271484 88.62053711 -245.25683594 87.91845703 C-234.73021941 62.29968002 -234.73021941 62.29968002 -230.09765625 59.98339844 C-229.41729284 58.65700187 -228.75447486 57.3216105 -228.09765625 55.98339844 C-219.69177546 43.14015029 -209.846378 31.95187183 -198.25390625 21.88574219 C-196.09689076 20.03312819 -196.09689076 20.03312819 -194.23925781 18.06274414 C-183.54023966 7.67474395 -168.68607678 -0.03769653 -155.09765625 -6.01660156 C-154.4826123 -6.28907715 -153.86756836 -6.56155273 -153.23388672 -6.84228516 C-103.4220213 -28.57527924 -47.80633496 -24.90555838 0 0 Z M-126.59765625 -10.26660156 C-127.58540039 -10.00202148 -128.57314453 -9.73744141 -129.59082031 -9.46484375 C-170.98405642 1.9274181 -207.21500219 30.17340331 -228.91967773 67.18652344 C-250.23807085 104.84951039 -258.74676451 151.64649359 -247.09765625 193.98339844 C-240.78280284 216.12670394 -231.49619825 236.90675852 -217.09765625 254.98339844 C-216.44047607 255.80976807 -216.44047607 255.80976807 -215.77001953 256.65283203 C-189.49722953 289.32115896 -151.02865143 313.98125284 -108.83496094 319.2668457 C-63.19547304 324.03418973 -17.62269811 315.07660113 18.90234375 285.98339844 C19.45325684 285.54527832 20.00416992 285.1071582 20.57177734 284.65576172 C38.84445943 269.96035536 53.78159614 252.67738079 64.90234375 231.98339844 C65.24072266 231.35594727 65.57910156 230.72849609 65.92773438 230.08203125 C78.76117116 205.77702335 84.1146709 180.52216419 84.21484375 153.29589844 C84.2187915 152.55849426 84.22273926 151.82109009 84.22680664 151.06134033 C84.26355197 136.71268805 83.13716509 122.7727104 79.15234375 108.92089844 C78.75547363 107.51650513 78.75547363 107.51650513 78.35058594 106.08374023 C66.19531227 64.11344033 37.79926652 27.61032076 -0.30859375 6.03417969 C-26.46924681 -8.29772255 -53.29739006 -15.35729762 -83.09765625 -15.39160156 C-83.83187805 -15.39368622 -84.56609985 -15.39577087 -85.3225708 -15.3979187 C-99.40166338 -15.39338532 -112.95711755 -13.94998035 -126.59765625 -10.26660156 Z " fill="#FAFAFA" transform="translate(336.09765625,105.0166015625)"/>
<path d="M0 0 C1.1147168 -0.04350586 1.1147168 -0.04350586 2.25195312 -0.08789062 C7.93870554 -0.15268272 11.12502768 1.07996277 15.8125 4.3125 C21.75036888 10.25036888 23.93440506 15.97089281 24.25 24.25 C24.01166171 32.47785234 21.04023264 38.8878944 15.41796875 44.87109375 C9.67727901 50.02514366 3.60421561 49.66194719 -3.78515625 49.7109375 C-9.49197899 49.0426299 -13.25578305 46.77787273 -16.9375 42.4375 C-17.50984375 41.78007812 -18.0821875 41.12265625 -18.671875 40.4453125 C-23.64961402 33.44055604 -22.98145491 24.55341945 -22.1875 16.3125 C-20.59818916 9.50260483 -15.62805189 5.37524979 -10.1875 1.3125 C-6.97743735 -0.29253133 -3.52318869 0.04467272 0 0 Z " fill="#626262" transform="translate(320.1875,229.6875)"/>
<path d="M0 0 C1.1147168 -0.04350586 1.1147168 -0.04350586 2.25195312 -0.08789062 C7.93870554 -0.15268272 11.12502768 1.07996277 15.8125 4.3125 C21.75036888 10.25036888 23.93440506 15.97089281 24.25 24.25 C24.01166171 32.47785234 21.04023264 38.8878944 15.41796875 44.87109375 C9.67727901 50.02514366 3.60421561 49.66194719 -3.78515625 49.7109375 C-9.49197899 49.0426299 -13.25578305 46.77787273 -16.9375 42.4375 C-17.50984375 41.78007812 -18.0821875 41.12265625 -18.671875 40.4453125 C-23.64961402 33.44055604 -22.98145491 24.55341945 -22.1875 16.3125 C-20.59818916 9.50260483 -15.62805189 5.37524979 -10.1875 1.3125 C-6.97743735 -0.29253133 -3.52318869 0.04467272 0 0 Z " fill="#626262" transform="translate(217.1875,229.6875)"/>
<path d="M0 0 C4.6137049 2.83263079 8.05482461 6.37601832 9.6171875 11.62109375 C9.6584375 12.30171875 9.6996875 12.98234375 9.7421875 13.68359375 C7.4321875 13.68359375 5.1221875 13.68359375 2.7421875 13.68359375 C2.3915625 12.75546875 2.0409375 11.82734375 1.6796875 10.87109375 C-0.82310166 6.7536019 -2.67639201 6.03548832 -7.2578125 4.68359375 C-11.57256447 4.00889315 -14.63581449 4.35499103 -18.5703125 6.43359375 C-22.78459526 9.96183048 -24.38823283 12.28304635 -25.2578125 17.68359375 C-25.84596373 25.21385782 -26.30161004 32.57464642 -21.2578125 38.68359375 C-16.87510396 41.87101815 -12.52699597 42.5023115 -7.2578125 41.68359375 C-3.95680119 40.2843443 -3.95680119 40.2843443 -1.2578125 38.68359375 C-0.5978125 38.68359375 0.0621875 38.68359375 0.7421875 38.68359375 C2.2271875 32.74359375 2.2271875 32.74359375 3.7421875 26.68359375 C-0.8778125 26.68359375 -5.4978125 26.68359375 -10.2578125 26.68359375 C-10.2578125 25.03359375 -10.2578125 23.38359375 -10.2578125 21.68359375 C-3.6578125 21.68359375 2.9421875 21.68359375 9.7421875 21.68359375 C9.7421875 29.93359375 9.7421875 38.18359375 9.7421875 46.68359375 C8.4221875 46.68359375 7.1021875 46.68359375 5.7421875 46.68359375 C5.0821875 45.03359375 4.4221875 43.38359375 3.7421875 41.68359375 C3.1853125 42.30234375 2.6284375 42.92109375 2.0546875 43.55859375 C-3.07404871 48.27148648 -8.49824961 48.06089908 -15.1640625 47.92578125 C-20.7382283 47.48941979 -23.72515224 45.4510214 -27.4453125 41.49609375 C-33.42167658 33.95113018 -34.31483609 26.17357482 -33.2578125 16.68359375 C-31.32556481 9.93559027 -27.85784953 4.82140197 -22.4453125 0.37109375 C-16.04427984 -3.0520672 -6.56252802 -2.65176492 0 0 Z " fill="#F9F9F9" transform="translate(279.2578125,231.31640625)"/>
<path d="M0 0 C1.1147168 -0.04350586 1.1147168 -0.04350586 2.25195312 -0.08789062 C7.93870554 -0.15268272 11.12502768 1.07996277 15.8125 4.3125 C21.75036888 10.25036888 23.93440506 15.97089281 24.25 24.25 C24.01166171 32.47785234 21.04023264 38.8878944 15.41796875 44.87109375 C9.67727901 50.02514366 3.60421561 49.66194719 -3.78515625 49.7109375 C-9.49197899 49.0426299 -13.25578305 46.77787273 -16.9375 42.4375 C-17.50984375 41.78007812 -18.0821875 41.12265625 -18.671875 40.4453125 C-23.64961402 33.44055604 -22.98145491 24.55341945 -22.1875 16.3125 C-20.59818916 9.50260483 -15.62805189 5.37524979 -10.1875 1.3125 C-6.97743735 -0.29253133 -3.52318869 0.04467272 0 0 Z M-10.1875 9.3125 C-10.93 9.910625 -11.6725 10.50875 -12.4375 11.125 C-16.07103882 15.66692353 -16.65505042 21.24690979 -16.5 26.90625 C-15.74318948 32.73369103 -13.75007098 37.62973126 -9.75 41.9375 C-3.16571318 44.47880368 3.76029467 44.4369967 10.375 42 C15.87522037 35.93565446 17.60284321 27.94134165 17.2578125 19.890625 C16.3857242 14.84169272 14.06238607 11.28324388 10.23828125 7.93359375 C3.3187596 3.3044499 -3.90869914 4.05582951 -10.1875 9.3125 Z " fill="#F7F7F7" transform="translate(320.1875,229.6875)"/>
<path d="M0 0 C1.1147168 -0.04350586 1.1147168 -0.04350586 2.25195312 -0.08789062 C7.93870554 -0.15268272 11.12502768 1.07996277 15.8125 4.3125 C21.75036888 10.25036888 23.93440506 15.97089281 24.25 24.25 C24.01166171 32.47785234 21.04023264 38.8878944 15.41796875 44.87109375 C9.67727901 50.02514366 3.60421561 49.66194719 -3.78515625 49.7109375 C-9.49197899 49.0426299 -13.25578305 46.77787273 -16.9375 42.4375 C-17.50984375 41.78007812 -18.0821875 41.12265625 -18.671875 40.4453125 C-23.64961402 33.44055604 -22.98145491 24.55341945 -22.1875 16.3125 C-20.59818916 9.50260483 -15.62805189 5.37524979 -10.1875 1.3125 C-6.97743735 -0.29253133 -3.52318869 0.04467272 0 0 Z M-10.1875 9.3125 C-10.93 9.910625 -11.6725 10.50875 -12.4375 11.125 C-16.07103882 15.66692353 -16.65505042 21.24690979 -16.5 26.90625 C-15.74318948 32.73369103 -13.75007098 37.62973126 -9.75 41.9375 C-3.16571318 44.47880368 3.76029467 44.4369967 10.375 42 C15.87522037 35.93565446 17.60284321 27.94134165 17.2578125 19.890625 C16.3857242 14.84169272 14.06238607 11.28324388 10.23828125 7.93359375 C3.3187596 3.3044499 -3.90869914 4.05582951 -10.1875 9.3125 Z " fill="#F7F7F7" transform="translate(217.1875,229.6875)"/>
<path d="M0 0 C1.98 0 3.96 0 6 0 C6 13.53 6 27.06 6 41 C13.92 41 21.84 41 30 41 C30 42.98 30 44.96 30 47 C20.1 47 10.2 47 0 47 C0 31.49 0 15.98 0 0 Z " fill="#FBFBFB" transform="translate(160,231)"/>
<path d="" fill="#FFFFFF" transform="translate(0,0)"/>
</svg>
